<svg width="596" height="829" viewBox="0 0 596 829" fill="none" xmlns="http://www.w3.org/2000/svg">
<path d="M246.505 10.5798C235.957 13.8536 228.422 38.4847 233.67 52.723C234.346 54.5417 233.618 55.4251 229.305 58.2312C214.859 67.6367 205.35 86.6557 205.35 106.298V115.34L201.816 117.419C192.566 122.875 185.239 146.882 191.319 151.923C192.203 152.651 192.878 153.586 192.878 154.106C192.878 155.353 197.607 162.42 200.413 165.278C206.337 171.462 221.303 175.151 228.993 172.397C231.176 171.618 231.332 171.825 231.332 175.515C231.384 177.697 232.319 181.491 233.41 183.985C235.905 189.493 235.905 189.337 233.67 189.337C227.071 189.389 211.014 201.237 204.414 211.007C200.725 216.463 199.997 217.034 197.243 216.619C192.41 215.891 179.419 222.491 172.976 228.882L167.519 234.339L159.517 234.131C152.969 233.923 150.423 234.391 145.227 236.573C137.432 239.847 137.796 239.847 137.796 236.105C137.796 234.391 136.809 230.078 135.561 226.492C133.535 220.62 133.379 219.165 134.366 211.37C135.561 201.653 135.769 201.237 138.679 202.744C142.473 204.823 148.812 204.095 152.138 201.289C154.009 199.73 156.555 198.691 158.478 198.691C181.03 198.691 173.703 159.25 150.787 157.327C128.65 155.509 107.76 172.033 93.1584 203.056C81.0507 228.778 79.6996 237.664 81.9861 276.118C82.9214 291.915 90.1965 298.774 111.294 303.659C117.01 305.01 124.285 306.881 127.403 307.92C155.36 316.858 201.296 314.468 213.352 303.399C215.171 301.736 217.301 301.269 223.225 301.061C227.383 300.957 231.748 300.541 232.891 300.177C234.658 299.554 235.333 300.333 237.412 305.166C240.114 311.454 248.48 320.132 254.612 323.042C257.73 324.549 258.249 325.224 257.574 326.991C255.495 332.655 256.742 345.594 260.068 352.61L263.29 359.521L259.756 366.692C257.47 371.265 255.963 376.149 255.547 380.047C254.924 386.127 254.82 386.283 245.726 395.272C220.159 420.579 206.389 457.266 206.389 499.825C206.389 512.92 206.233 513.855 203.739 517.649C195.476 530.12 196.672 546.333 206.701 559.272C209.819 563.325 211.741 567.015 212.521 570.652C213.716 576.316 219.068 592.062 223.329 602.454C224.732 605.884 228.578 614.978 231.799 622.721C243.959 651.717 251.078 673.334 251.078 681.284C251.078 682.012 249.571 683.415 247.701 684.506C245.83 685.598 240.581 689.287 236.009 692.717C227.434 699.16 218.237 703.733 213.664 703.785C206.649 703.837 201.244 711.58 204.258 717.244C205.973 720.414 211.533 723.532 215.483 723.532C217.301 723.532 222.082 724.103 226.031 724.779C232.059 725.818 235.957 725.714 249.727 724.155C262.822 722.7 267.447 722.544 272.332 723.428C301.484 728.832 313.436 715.269 301.016 690.794C292.234 673.438 288.597 620.07 295.508 609.262C295.664 609.054 297.067 610.041 298.626 611.496C300.185 613.003 306.628 617.836 312.916 622.253C326.271 631.71 342.224 644.39 345.03 647.819C346.121 649.17 349.343 652.964 352.201 656.29C356.566 661.382 357.553 663.357 358.333 668.241C358.852 671.515 360.879 678.79 362.854 684.506C367.998 699.316 367.375 702.278 358.437 705.812C344.562 711.268 350.07 722.492 366.595 722.492C387.537 722.44 397.826 711.943 399.177 689.235C400.112 673.49 401.307 668.761 405.828 662.214C417.105 645.897 412.792 632.49 394.76 628.021C381.665 624.695 382.236 625.059 376.884 617.732C374.026 613.887 369.297 606.3 366.335 600.896C363.373 595.439 359.84 589.307 358.541 587.177C357.19 585.098 355.579 581.097 354.851 578.343C349.863 558.129 336.248 540.357 322.581 536.304C317.593 534.797 317.645 534.381 323.049 530.536C339.574 518.688 365.712 484.703 372.675 466.048C374.234 461.943 376.416 458.929 381.041 454.668C405.205 432.323 405.361 379.371 381.405 351.57C376.105 345.438 375.949 333.643 380.989 326.16C391.85 310.051 403.074 274.143 401.203 261.568C400.58 257.463 400.944 256.008 403.802 250.603C408.219 242.289 410.557 229.87 409.258 221.347C408.323 215.268 408.427 214.696 411.233 210.331C417.988 199.626 421.885 180.555 419.547 169.591L418.352 163.979L429.004 153.534C442.671 140.179 451.661 122.095 451.661 108.013C451.661 106.35 452.752 103.544 454.155 101.725C464.808 87.5391 465.379 76.055 455.974 66.8053C453.324 64.1551 449.53 59.5823 447.66 56.5683C440.073 44.7204 427.134 35.0031 406.764 25.9613C400.32 23.1032 394.344 20.1413 393.461 19.4138C385.666 12.7623 360.983 8.60518 352.357 12.5545C333.754 20.9727 332.662 54.6456 351.006 54.4378C353.396 54.3858 356.566 55.2173 358.489 56.3605C362.334 58.7508 367.946 58.9067 371.636 56.8282C374.961 54.9055 375.793 54.9055 375.793 56.8282C375.793 57.6596 376.157 58.3871 376.624 58.3871C377.456 58.3871 379.43 62.5962 381.561 69.0398C382.236 71.1703 383.743 74.4441 384.887 76.3668L386.913 79.8484L381.353 82.7584C374.65 86.24 370.129 91.1766 366.751 98.6075C364.309 103.908 364.049 104.116 360.1 104.116C351.889 104.116 335.52 111.651 333.806 116.223C332.87 118.666 331.103 117.73 331.103 114.768C331.052 110.767 327.57 103.544 324.14 100.374C321.49 97.932 321.282 97.1525 321.594 91.5923C322.114 82.1868 314.527 67.8446 306.94 63.9992C305.069 63.0639 303.406 62.1805 303.251 62.0246C303.095 61.8687 303.926 58.7508 305.173 55.1133C308.187 46.1754 307.719 33.6001 304.134 27.78C297.327 16.7636 282.361 17.3872 276.541 28.9233C275.398 31.1058 273.631 33.9118 272.644 35.107C271.604 36.3022 270.565 38.1729 270.357 39.2642C269.214 45.0322 268.382 46.9549 266.979 46.9549C265.888 46.9549 265.628 46.4353 266.2 45.1362C271.137 33.9118 263.55 10.6838 254.976 10.5798C254.248 10.5798 252.741 10.372 251.598 10.1121C250.455 9.85232 248.168 10.0602 246.505 10.5798ZM253.053 19.3618C260.12 22.9993 261.939 47.9942 255.183 47.9942C253.573 47.9942 250.091 48.9296 247.389 50.1247C241.153 52.7749 241.205 52.8269 241.205 40.8751C241.205 24.1425 245.882 15.6723 253.053 19.3618ZM379.95 22.6356C384.523 24.1425 389.356 26.377 390.655 27.6242C391.954 28.8193 395.799 30.8979 399.229 32.249C418.144 39.7838 439.189 55.4251 439.189 61.9726C439.189 64.311 441.164 66.3896 448.075 71.2223C455.506 76.4707 454.363 86.8636 444.854 100.842C443.243 103.18 442.307 106.038 442.307 108.533C442.307 119.289 433.733 136.853 423.808 146.467C414.766 155.249 414.922 155.197 413.363 150.104C410.557 140.751 406.868 137.633 403.334 141.53C401.463 143.557 401.515 143.765 403.646 148.13C412.999 166.837 413.259 186.22 404.425 203.472L400.008 211.994L400.476 222.751C400.944 233.299 400.892 233.663 397.046 242.861C393.617 251.123 393.097 253.617 392.421 264.166C391.382 281.262 388.316 291.292 376.157 317.482C371.116 328.342 370.077 331.512 369.193 339.515L368.206 348.868L373.506 355.883C396.423 386.127 395.955 427.075 372.415 450.355C368.57 454.2 365.4 457.889 365.4 458.617C365.4 470.881 315.254 533.342 305.381 533.342C302.263 533.342 299.249 537.187 300.6 539.37C301.432 540.669 303.251 541.136 307.823 541.188C323.932 541.344 343.107 561.143 345.342 580.006C345.705 583.332 346.849 586.605 348.252 588.268C349.447 589.775 352.773 595.231 355.527 600.376C369.973 627.19 374.598 631.762 392.733 636.751C403.802 639.765 405.101 645.637 397.514 658.264C392.266 666.89 391.59 669.696 390.707 686.429C389.719 705.292 383.691 712.931 368.934 714.178C359.216 715.009 356.67 713.243 364.309 710.956C374.13 707.994 377.3 698.537 372.415 686.533C371.012 683.103 369.297 677.699 368.57 674.633C365.972 662.993 363.841 657.381 360.152 652.34C351.733 640.908 331.415 623.552 305.745 605.884L297.586 600.272L297.327 590.97C296.859 573.77 290.675 558.441 279.451 546.905C271.552 538.798 271.189 540.669 281.997 533.706C305.589 518.532 331.207 492.498 340.977 473.946C343.575 469.01 345.757 466.308 348.044 465.113C357.553 460.176 369.245 445.522 375.221 430.972C381.977 414.603 378.183 380.878 370.441 388.569C368.57 390.44 368.57 390.803 370.129 395.168C377.404 415.59 361.97 451.81 343.055 458.669C340.613 459.552 338.95 461.475 336.3 466.619C331.415 476.025 319.1 492.186 310.889 499.877C298.002 512.036 266.72 535.42 263.394 535.42C261.679 535.42 258.353 538.59 258.353 540.201C258.353 542.332 261.523 544.878 263.446 544.306C268.071 542.799 282.621 563.793 286.518 577.512C288.752 585.41 288.233 602.922 285.531 611.288C279.711 629.164 283.816 676.764 292.754 694.847C300.548 710.644 295.872 718.075 279.919 715.373C270.357 713.762 261.211 713.866 247.545 715.789C235.229 717.504 212.729 716.049 211.897 713.554C211.689 712.931 214.651 711.632 218.549 710.696C229.253 708.046 248.688 696.25 258.613 686.273C262.77 682.168 257.262 661.07 242.66 625.059C230.708 595.699 221.095 569.665 220.315 564.365C219.848 561.455 218.341 558.389 216.106 555.79C207.584 545.761 205.661 530.432 211.741 521.234C215.223 515.986 215.95 511.413 215.794 496.811C215.431 460.176 230.033 423.333 254.664 398.754L264.069 389.4L264.121 382.593C264.225 376.825 264.797 374.694 268.019 368.615C272.695 359.833 272.695 359.261 268.486 351.155C265.213 344.919 265.109 344.295 265.109 332.032V319.352L257.834 314.987C247.805 309.011 245.466 306.569 243.907 300.489C243.128 297.579 242.712 295.137 242.92 294.981C243.128 294.825 245.102 293.838 247.337 292.695C257.262 287.758 268.642 273.832 265.42 270.61C263.186 268.375 261.471 269.259 254.612 276.066C242.816 287.914 229.669 294.098 219.068 292.851C214.287 292.279 213.144 292.539 210.234 294.669C193.086 307.556 160.4 308.804 122.362 297.943C115.347 295.968 108.8 294.306 107.812 294.306C98.9265 294.306 90.6641 285.212 90.3524 275.079C90.1965 271.077 89.7807 263.958 89.365 259.23C87.3384 235.274 98.6667 202.536 116.646 180.503C122.986 172.657 134.99 166.681 146.058 165.746L153.281 165.122L158.53 169.539L163.778 173.956V180.971C163.778 189.026 162.635 190.74 157.802 189.753C155.464 189.285 154.321 189.597 153.281 191.104C148.604 197.496 142.681 198.171 136.86 192.975C131.456 188.09 128.286 189.493 128.65 196.612C128.702 197.444 127.923 203.004 126.883 208.928L125.065 219.685L127.715 228.674C131.872 242.653 131.872 242.757 128.962 245.459C122.57 251.435 128.286 255.436 135.925 250.396C147.097 242.965 154.944 240.782 164.194 242.549L170.326 243.692L175.002 238.288C179.991 232.468 192.93 223.634 196.412 223.634C196.568 223.634 196.36 226.024 195.892 228.934C193.917 241.458 201.244 241.406 205.35 228.83C212.832 205.758 234.917 191.988 256.379 196.976C259.289 197.652 260.484 197.444 261.835 196.093C266.096 191.832 261.627 188.246 250.974 187.467C242.296 186.895 239.958 184.713 241.049 178.269C241.465 175.463 241.101 173.748 239.594 171.566L237.516 168.656L242.14 164.031C258.977 147.194 245.778 115.652 220.627 112.586L215.223 111.91L214.911 106.35C213.924 88.8902 230.033 61.5049 241.361 61.5049C242.244 61.5049 246.038 59.998 249.779 58.1792C256.015 55.1133 257.21 54.9055 266.2 55.0614C277.009 55.2173 276.333 55.6849 277.528 46.9549C278.879 37.0297 286.622 27.3124 292.13 28.6634C302.367 31.2617 299.821 54.9574 287.921 67.6887C283.14 72.8332 283.088 72.9371 284.751 75.5353C287.505 79.7445 291.974 79.1209 295.352 73.9764C298.574 69.1437 299.717 68.9359 303.77 72.3135C309.902 77.458 314.735 92.2159 311.825 96.9447C311.461 97.5163 313.124 100.063 315.514 102.661C322.321 110.092 324.504 118.094 321.698 125.525C320.815 127.864 321.022 128.695 322.737 130.566C323.88 131.761 325.491 134.619 326.271 136.905C327.414 140.335 328.193 141.062 330.792 141.322C335.468 141.79 336.975 139.348 334.845 134.775C330.428 125.473 350.486 109.26 364.101 111.079C369.817 111.858 372.207 110.248 373.61 104.635C376.261 94.0866 393.045 82.9663 404.061 84.4213C408.063 84.9929 409.83 82.5505 407.959 79.1209C407.127 77.458 405.776 77.0943 400.944 77.0943C394.084 77.0943 393.876 76.8864 389.771 65.9739C388.316 62.1285 386.757 58.7508 386.29 58.439C384.367 57.1919 381.145 49.2413 381.665 47.1108C383.276 41.031 377.196 40.1995 372.675 45.9156C368.83 50.7483 364.984 51.3719 360.152 47.9422C357.813 46.2794 356.254 45.9676 353.448 46.4872C342.224 48.6178 342.847 30.4302 354.332 20.6609C357.397 18.0627 368.83 18.9981 379.95 22.6356ZM222.914 121.316C246.194 128.227 245.83 164.966 222.55 164.81C216.938 164.758 207.688 161.329 204.882 158.211C202.544 155.613 205.142 153.274 208.467 155.041C213.768 157.899 221.355 154.002 217.665 150.312C216.314 148.909 215.639 148.857 213.924 149.896C208.779 153.118 204.57 146.103 208.935 141.582C213.924 136.386 211.429 132.54 203.791 133.58C198.334 134.307 198.23 134.099 201.816 128.903C204.726 124.694 208.26 121.992 212.521 120.692C216.418 119.497 216.886 119.549 222.914 121.316ZM203.271 147.142C203.219 149.741 201.556 152.651 200.673 151.715C199.53 150.624 197.139 141.738 197.815 141.114C198.906 140.023 203.271 144.908 203.271 147.142Z" fill="black"/>
<path d="M249.935 106.091C241.933 114.145 251.702 125.318 260.328 118.043C265.317 113.885 264.537 107.39 258.665 104.272C255.184 102.401 253.261 102.817 249.935 106.091Z" fill="black"/>
<path d="M324.14 177.594C323.672 178.737 324.296 179.828 325.959 180.867C336.508 187.415 347.472 205.135 352.357 223.53C358.385 246.342 358.021 266.609 350.902 306.154C345.965 333.435 346.849 346.27 354.435 359.209C359.892 368.563 362.49 364.25 357.917 353.389C353.5 342.84 352.98 332.448 355.994 315.091C366.179 257.151 365.296 232.104 351.993 204.407C343.159 185.96 326.894 170.319 324.14 177.594Z" fill="black"/>
<path d="M367.895 185.7C366.024 193.287 376.625 223.894 381.717 225.453C384.315 226.284 384.315 220.828 381.717 215.684C377.56 207.525 373.507 195.469 372.831 189.338C372.052 182.842 369.142 180.712 367.895 185.7Z" fill="black"/>
<path d="M306.888 209.448C306.576 210.279 308.551 213.189 311.357 216.151C325.907 231.429 329.544 255.852 319.619 271.857C314.579 279.964 318.112 283.289 323.672 275.651C336.819 257.515 331.363 224.258 313.02 211.007C308.447 207.681 307.667 207.473 306.888 209.448Z" fill="black"/>
<path d="M259.652 298.151C257.106 299.087 258.405 303.14 262.25 306.362C268.694 311.662 277.476 313.637 280.178 310.415C282.412 307.713 279.554 305.478 274.826 306.258C271.24 306.881 270.513 306.569 265.94 302.308C263.186 299.814 260.38 297.943 259.652 298.151Z" fill="black"/>
<path d="M91.3847 348.36C78.0113 363.516 74.2222 385.36 82.1348 401.853C84.0293 405.865 84.0293 405.865 87.707 401.519C95.8425 392.046 101.415 376.89 101.415 364.296C101.415 357.053 99.0744 345.908 97.1798 344.014C96.5111 343.345 94.2822 345.128 91.3847 348.36ZM94.5051 371.986C94.0593 383.353 93.725 384.691 89.6016 393.161C87.2612 398.176 84.9209 402.188 84.5866 402.188C83.5836 402.188 82.4691 394.832 82.4691 387.923C82.4691 381.459 85.3667 372.209 89.713 364.742C94.2822 357.053 95.0624 358.278 94.5051 371.986Z" fill="black"/>
<path d="M512.311 346.02C507.073 356.161 505.625 371.652 508.745 383.799C510.64 391.043 516.212 402.188 519.444 405.085C521.45 406.868 521.673 406.757 524.347 400.85C530.811 386.586 530.811 370.983 524.347 358.167C522.23 353.932 518.998 348.694 517.215 346.577C513.983 342.899 513.983 342.899 512.311 346.02ZM519.221 367.194C522.341 375.33 523.679 381.682 523.79 387.366C523.79 392.604 521.561 403.302 520.447 403.302C518.998 403.302 513.76 388.703 513.091 382.908C512.311 376.556 514.429 360.953 515.989 360.953C516.546 360.953 517.995 363.739 519.221 367.194Z" fill="black"/>
<path d="M456.923 347.023C456.923 350.923 461.826 362.848 465.838 368.754C473.417 379.899 486.901 389.372 497.266 390.82C501.835 391.378 501.835 391.378 501.166 387.031C499.829 378.896 492.808 366.971 484.784 359.393C478.655 353.709 475.423 351.592 468.179 348.806C457.926 344.905 456.923 344.682 456.923 347.023ZM477.986 363.294C481.664 365.745 486.679 369.98 489.019 372.655C493.142 377.447 499.94 388.591 499.049 389.372C497.934 390.597 487.013 384.134 482.778 379.787C478.655 375.664 469.182 361.399 469.182 359.393C469.182 357.944 471.522 358.947 477.986 363.294Z" fill="black"/>
<path d="M144.99 348.806C134.291 351.592 128.161 355.158 119.246 364.408C111.89 371.875 106.541 380.679 105.204 387.366C104.535 390.82 104.647 391.043 107.433 391.043C119.023 391.043 138.637 377.893 147.218 364.408C150.45 359.393 154.239 349.474 153.571 347.691C153.348 347.134 149.559 347.691 144.99 348.806ZM140.866 360.062C131.839 375.552 120.695 385.582 109.884 388.369C106.653 389.149 106.653 389.149 110.33 383.688C116.571 374.772 121.586 369.757 130.279 364.074C138.303 358.836 142.538 357.275 140.866 360.062Z" fill="black"/>
<path d="M56.2793 384.134C48.1439 396.393 46.6951 412.775 52.3787 428.823C54.1619 434.061 56.8365 439.41 58.2853 440.97C61.0714 443.757 61.0714 443.757 64.6377 436.067C71.4358 421.468 72.7731 411.438 69.6527 399.402C67.981 393.161 62.2973 381.793 60.1799 380.456C59.6226 380.122 57.8395 381.793 56.2793 384.134ZM62.5202 404.528C65.1949 414.781 65.1949 418.236 62.0744 431.052C59.5112 441.528 59.5112 441.528 56.7251 434.952C53.0474 425.925 53.0474 413.555 56.7251 402.968C58.1739 398.733 59.5112 395.613 59.8455 395.947C60.1799 396.17 61.2943 400.07 62.5202 404.528Z" fill="black"/>
<path d="M542.736 385.36C536.272 393.941 533.374 402.411 532.929 414.112C532.594 421.802 533.04 425.926 534.377 430.272C536.829 437.739 540.284 444.537 541.51 444.537C542.067 444.537 545.076 439.41 548.197 433.058C557.112 415.338 557.892 402.299 550.983 387.143C549.422 383.8 547.862 380.902 547.416 380.568C546.971 380.345 544.853 382.462 542.736 385.36ZM547.751 393.161C548.085 393.718 547.974 394.498 547.416 394.833C546.859 395.167 546.413 394.721 546.413 393.83C546.413 391.935 546.748 391.712 547.751 393.161ZM548.085 412.106C548.531 423.585 548.419 425.034 545.522 432.835C543.85 437.404 542.067 441.194 541.621 441.194C540.395 441.194 538.947 430.383 539.058 422.248C539.058 416.676 540.953 408.094 543.962 400.293C545.968 394.944 547.416 399.29 548.085 412.106Z" fill="black"/>
<path d="M123.704 396.727C114.566 398.51 101.081 405.977 94.8399 412.886C91.7195 416.23 89.1562 419.462 89.1562 420.019C89.1562 421.691 101.749 423.697 108.659 423.028C112.337 422.694 118.243 421.356 121.81 420.13C133.734 416.007 151.119 401.296 147.107 398.844C145.436 397.841 132.954 395.39 130.279 395.613C129.388 395.724 126.49 396.17 123.704 396.727ZM132.62 405.197C132.508 406.757 123.147 413.221 116.46 416.23C111.668 418.459 107.433 419.462 101.192 419.796C96.4002 420.13 92.4996 420.019 92.4996 419.685C92.4996 418.236 109.774 408.429 115.68 406.534C122.032 404.528 132.62 403.748 132.62 405.197Z" fill="black"/>
<path d="M461.604 396.504C459.598 397.061 457.592 397.73 457.257 398.176C455.251 400.07 468.179 412.998 476.092 417.01C486.122 422.025 495.037 423.808 504.064 422.471C508.299 421.802 512.311 420.799 512.868 420.242C514.874 418.236 499.606 404.082 491.137 399.959C484.673 396.727 481.998 396.17 474.42 395.947C469.405 395.724 463.61 396.058 461.604 396.504ZM490.914 407.203C496.152 409.432 509.302 417.901 509.302 419.016C509.302 420.13 496.597 419.127 491.471 417.79C485.341 416.118 472.525 407.203 472.525 404.64C472.525 403.191 485.676 405.085 490.914 407.203Z" fill="black"/>
<path d="M511.532 404.751C511.532 405.197 514.318 410.769 517.661 417.01C534.378 448.437 544.296 481.313 547.974 517.422C549.534 533.915 549.646 538.819 548.531 553.753C545.522 591.532 538.055 621.511 523.345 654.164C512.089 678.905 501.947 695.287 484.785 715.904C463.388 741.537 429.954 765.274 397.635 777.756C376.349 786.003 350.16 792.467 330.88 794.139C321.519 795.03 321.519 795.03 321.519 798.373C321.519 801.605 321.63 801.717 326.534 801.383C336.006 800.825 359.41 796.59 371.669 793.358C413.683 782.214 448.12 762.377 478.655 731.618C515.878 694.173 541.622 640.456 551.095 580.499C553.658 564.674 554.549 529.458 552.878 514.635C548.42 476.187 535.715 440.079 516.324 411.103C513.649 407.091 511.532 404.305 511.532 404.751Z" fill="black"/>
<path d="M84.1418 414.669C55.5005 453.452 42.0157 495.801 41.9043 547.066C41.9043 572.252 43.6874 586.406 50.1512 612.149C55.2777 632.878 60.4041 646.586 70.0998 666.869C81.8015 690.941 94.0604 708.549 112.783 728.275C141.201 758.142 177.087 779.651 218.433 791.687C232.363 795.699 258.553 800.714 269.14 801.382C274.712 801.717 274.712 801.717 274.712 798.373C274.712 795.03 274.712 795.03 263.01 793.693C223.336 789.123 185.891 775.527 153.795 754.13C136.521 742.54 125.042 732.51 110.666 716.35C95.5092 699.188 88.0424 688.6 78.2353 669.655C58.3981 631.652 48.4795 594.43 47.1422 552.304C45.9163 514.858 52.2686 483.319 68.4281 446.877C72.7745 437.181 83.696 417.567 88.8225 410.212C89.714 408.874 90.2713 407.76 89.8255 407.76C89.4912 407.76 86.9279 410.88 84.1418 414.669Z" fill="black"/>
<path d="M29.7552 424.142C29.4209 424.699 28.4179 427.709 27.4149 431.052C24.9631 439.522 25.0745 452.672 27.8606 461.588C30.3124 469.389 38.0021 481.759 42.0141 484.434C44.3544 485.883 44.4659 485.771 46.249 479.976C47.252 476.744 48.3664 469.723 48.7008 464.485C49.3694 454.344 48.0321 448.214 43.1285 438.407C39.0051 430.049 31.204 421.802 29.7552 424.142ZM38.8936 447.769C43.6858 458.133 45.1345 466.603 43.9087 476.41C42.9057 484.1 42.9057 484.1 39.7852 479.642C35.5503 473.512 32.3184 462.368 32.3184 454.009C32.3184 446.208 33.3214 440.079 34.5473 440.079C34.9931 440.079 36.8876 443.534 38.8936 447.769Z" fill="black"/>
<path d="M566.584 427.486C555.44 437.516 550.313 449.552 550.09 465.711C549.979 475.853 551.985 486.886 553.991 486.886C555.44 486.886 562.795 477.636 567.253 470.169C573.382 459.693 575.388 451.892 574.831 440.19C574.497 434.953 573.605 428.935 572.714 426.929C571.153 423.362 571.153 423.362 566.584 427.486ZM565.135 465.6C563.91 469.723 561.235 475.407 559.117 478.305C555.328 483.654 555.328 483.654 554.548 478.193C553.322 468.72 556.331 456.573 562.684 446.208C566.696 439.522 566.696 439.522 567.03 448.883C567.253 455.904 566.807 460.25 565.135 465.6Z" fill="black"/>
<path d="M99.2971 438.519C85.9238 442.085 72.439 453.006 66.5324 464.931C62.186 473.735 62.2975 473.958 70.7673 473.067C84.3635 471.729 100.857 462.925 108.881 452.784C112.448 448.214 117.017 439.856 117.017 437.85C117.017 436.178 106.43 436.624 99.2971 438.519ZM103.643 446.654C103.643 447.211 100.412 451 96.511 455.012C91.2731 460.473 87.3725 463.259 81.2431 466.157C72.2161 470.28 66.8667 471.841 66.8667 470.392C66.8667 468.72 78.1226 457.687 83.2491 454.232C87.9298 451 99.7429 445.763 102.306 445.651C102.975 445.651 103.643 446.097 103.643 446.654Z" fill="black"/>
<path d="M484.784 437.739C484.784 441.082 491.805 452.338 497.155 457.576C506.182 466.491 521.561 473.512 531.814 473.512C535.714 473.512 535.714 472.398 531.591 463.705C527.356 454.678 517.66 444.871 508.745 440.636C501.389 437.181 484.784 435.175 484.784 437.739ZM515.32 453.23C519.666 456.239 530.476 467.717 530.476 469.278C530.476 472.287 517.549 466.603 509.971 460.362C504.51 455.793 496.82 446.32 497.823 445.317C498.603 444.425 510.082 449.552 515.32 453.23Z" fill="black"/>
<path d="M9.69483 474.293C9.3605 474.85 8.91472 477.97 8.46894 481.314C6.46293 498.142 16.8273 520.096 31.8723 530.349C36.6644 533.693 36.6644 533.693 37.4445 529.681C38.4476 523.997 37.3331 509.62 35.2157 502.934C32.541 494.464 25.52 484.323 18.1646 478.639C11.5894 473.401 10.4749 472.844 9.69483 474.293ZM26.6344 503.045C30.2006 510.178 36.1072 529.123 35.1042 530.126C33.8783 531.352 25.7429 522.102 22.511 515.973C18.499 508.283 14.5984 491.566 16.493 489.672C17.6074 488.557 22.9567 495.578 26.6344 503.045Z" fill="black"/>
<path d="M580.961 477.413C569.482 485.103 561.904 496.804 558.784 511.404C557.112 519.539 557.446 531.909 559.341 533.024C560.79 534.027 572.38 523.997 576.615 518.202C583.97 508.283 587.536 497.919 588.205 485.66C588.539 479.419 588.316 474.627 587.648 474.293C587.091 473.958 584.082 475.296 580.961 477.413ZM582.298 486.774C581.964 487.443 581.073 487.666 580.404 487.332C579.735 486.886 579.847 486.329 580.738 485.66C582.521 484.545 583.301 485.214 582.298 486.774ZM580.181 491.566C579.847 493.015 579.289 496.916 578.955 500.259C578.064 508.395 573.049 518.536 566.696 525.111C563.799 528.12 561.347 530.349 561.013 530.126C560.344 529.346 565.916 509.509 567.922 505.497C570.708 500.148 578.621 489.115 579.735 489.115C580.181 489.115 580.404 490.229 580.181 491.566Z" fill="black"/>
<path d="M87.3719 483.988C72.9955 489.003 63.2999 497.584 56.6132 511.18C53.9385 516.641 52.8241 520.43 52.6012 526.003C52.1554 533.581 52.1554 533.581 61.071 529.123C72.4383 523.439 83.8057 512.518 89.4893 501.596C93.7242 493.684 96.5104 483.765 95.0616 482.428C94.6158 481.982 91.161 482.651 87.3719 483.988ZM88.5978 492.458C88.9321 493.126 88.4863 493.238 87.5948 492.904C85.5888 492.123 85.2544 491.343 86.8147 491.343C87.4833 491.343 88.2635 491.789 88.5978 492.458ZM81.7997 501.15C77.6762 510.4 71.2124 518.424 63.077 524.108C59.1764 526.894 55.7216 529.235 55.2758 529.235C53.9385 529.235 62.7426 513.075 66.7546 508.171C71.3239 502.599 82.4683 493.461 83.6942 494.241C84.14 494.464 83.2484 497.584 81.7997 501.15Z" fill="black"/>
<path d="M503.73 484.323C503.842 499.925 518.553 520.988 535.046 529.012C539.17 531.018 542.848 532.578 543.293 532.578C545.299 532.578 542.848 518.313 539.616 511.069C533.486 497.585 524.905 489.338 511.309 483.988C507.52 482.539 504.288 481.314 504.065 481.314C503.842 481.314 503.73 482.651 503.73 484.323ZM524.236 502.711C531.48 510.178 537.833 519.762 539.95 526.894C540.73 529.458 540.73 529.458 537.164 527.452C529.251 522.882 522.788 515.75 518.218 506.723C510.863 491.901 512.423 490.898 524.236 502.711Z" fill="black"/>
<path d="M0 531.798C0 538.373 2.78612 548.515 6.46379 555.313C12.7047 566.903 27.3039 579.385 36.2195 580.722C38.2255 581.057 38.4484 580.499 38.1141 575.484C36.9996 557.653 23.8492 537.705 8.35835 530.349C4.45779 528.455 1.003 527.006 0.668668 527.006C0.334334 527.006 0 529.123 0 531.798ZM18.054 549.183C24.6293 556.204 36.7767 576.487 35.328 577.936C34.325 578.828 23.069 570.024 19.9486 565.9C18.3884 563.783 16.1595 560.328 15.045 558.21C12.3704 552.972 8.91557 541.494 10.03 541.494C10.4758 541.494 14.1535 544.948 18.054 549.183Z" fill="black"/>
<path d="M586.422 531.129C571.266 538.596 559.341 555.09 556.89 572.029C556.221 576.71 555.998 580.834 556.444 581.168C557.67 582.394 568.146 577.156 574.275 572.364C581.073 567.014 588.763 556.539 591.66 548.849C594.001 542.608 596.341 528.343 595.227 527.563C594.892 527.34 590.88 529.012 586.422 531.129ZM588.094 539.822C588.094 540.713 587.648 541.159 587.091 540.825C586.534 540.491 586.422 539.71 586.757 539.153C587.76 537.704 588.094 537.927 588.094 539.822ZM583.525 548.403C580.404 558.879 574.944 567.126 567.254 573.032C563.465 575.93 560.122 578.159 559.787 577.825C559.453 577.602 561.57 572.475 564.356 566.68C568.368 558.545 571.266 554.198 576.727 548.515C580.739 544.503 584.305 541.494 584.639 541.828C584.974 542.162 584.528 545.06 583.525 548.403Z" fill="black"/>
<path d="M80.7977 534.027C63.6353 543.165 52.3793 563.782 54.2739 582.394C54.6082 585.626 55.1655 588.3 55.3884 588.3C56.9486 588.3 66.1985 580.834 71.3249 575.596C78.6803 567.906 82.9152 561.554 85.9242 553.752C88.376 547.4 90.1591 530.349 88.4874 530.349C87.9302 530.349 84.4754 532.021 80.7977 534.027ZM79.5718 547.846C76.3399 562.445 72.9966 568.909 64.3039 577.936C60.6263 581.837 57.3944 584.846 57.2829 584.623C56.5028 583.954 61.7407 568.463 64.6383 562.668C67.7587 556.427 77.3429 544.837 79.2375 544.837C79.7947 544.837 80.0176 546.174 79.5718 547.846Z" fill="black"/>
<path d="M507.073 536.924C507.073 547.066 511.531 559.77 518.552 569.466C524.459 577.825 537.275 589.08 539.392 587.743C540.841 586.852 540.841 575.93 539.281 567.572C536.829 554.087 528.916 542.497 516.657 534.584C507.63 528.789 507.073 528.9 507.073 536.924ZM521.784 549.518C527.356 555.87 532.371 565.454 535.603 575.819C537.052 580.499 538.055 584.511 537.832 584.623C537.609 584.846 534.6 582.282 531.145 578.939C524.124 572.141 519.332 563.114 516.657 551.746C514.763 543.388 515.766 542.942 521.784 549.518Z" fill="black"/>
<path d="M84.9208 583.397C81.1317 586.852 76.5625 591.755 74.7793 594.207C67.6469 604.683 64.415 620.062 66.8668 631.652C68.9842 641.459 69.3186 641.682 74.8908 636.11C81.5775 629.535 87.2611 620.619 91.0503 611.146C93.6135 604.46 94.0593 601.674 94.1707 591.421C94.1707 584.734 93.6135 578.939 93.0563 578.382C92.2762 577.602 89.6015 579.273 84.9208 583.397ZM88.487 591.421C88.8214 591.978 88.3756 592.424 87.484 592.424C86.5925 592.424 86.1467 591.978 86.481 591.421C86.8154 590.975 87.2611 590.529 87.484 590.529C87.7069 590.529 88.1527 590.975 88.487 591.421ZM85.9238 602.342C85.478 615.939 81.0202 627.417 73.5535 634.55C69.9872 637.893 69.9872 637.893 70.6559 635.107C70.8788 633.547 71.436 629.423 71.7703 625.969C72.6619 617.722 76.7854 606.243 81.466 599.445C83.5835 596.436 85.3666 594.207 85.7009 594.541C85.9238 594.764 86.0353 598.33 85.9238 602.342Z" fill="black"/>
<path d="M503.172 578.27C502.838 578.939 502.169 583.843 501.835 589.192C501.166 600.671 503.172 609.809 508.522 620.062C512.199 626.972 524.124 640.679 525.461 639.453C526.799 638.116 529.362 626.86 529.362 622.291C529.362 611.147 523.678 596.436 516.323 588.189C510.528 581.837 504.064 576.933 503.172 578.27ZM513.871 598.665C520.669 609.475 523.79 619.839 523.678 631.207C523.678 636.779 523.678 636.779 520.892 633.435C513.314 624.297 509.525 614.49 509.302 602.454C509.079 591.755 509.413 591.532 513.871 598.665Z" fill="black"/>
<path d="M2.22852 580.834C2.22852 583.954 7.57786 597.104 10.9212 602.342C18.1651 613.598 33.433 624.743 44.3546 626.86C47.5865 627.529 47.9208 627.306 47.9208 624.966C47.8094 619.951 42.5715 607.134 38.0022 601.116C32.3186 593.65 25.5204 588.077 17.7193 584.511C12.0356 581.837 2.22852 579.496 2.22852 580.834ZM13.8188 590.752C13.4844 591.198 12.8158 591.644 12.1471 591.644C11.5899 591.644 11.1441 591.198 11.1441 590.752C11.1441 590.195 11.9242 589.749 12.8158 589.749C13.7073 589.749 14.1531 590.195 13.8188 590.752ZM20.8398 595.767C28.0837 600.002 36.5535 608.918 41.457 617.276C43.7974 621.176 45.469 624.631 45.1347 624.854C44.9118 625.077 42.3486 624.185 39.5625 622.848C31.6499 618.948 23.0687 610.478 18.4994 601.785C12.9272 591.198 13.0386 591.198 20.8398 595.767Z" fill="black"/>
<path d="M581.184 583.062C564.913 589.192 551.986 602.9 547.639 619.059C546.636 622.96 546.079 626.526 546.414 626.86C547.639 628.086 561.57 622.737 568.034 618.502C579.067 611.146 587.202 600.894 590.657 589.638C591.883 585.737 592.886 582.059 592.886 581.502C592.886 579.83 588.205 580.499 581.184 583.062ZM584.751 589.972C584.751 590.863 583.97 591.866 583.19 592.089C582.299 592.424 581.964 592.201 582.299 591.644C582.633 590.975 582.299 590.529 581.519 590.529C580.516 590.529 580.516 590.195 581.742 589.415C584.082 587.966 584.751 588.077 584.751 589.972ZM580.627 593.315C580.627 595.098 574.609 605.351 570.709 610.255C566.585 615.604 556.444 622.737 550.76 624.52C548.308 625.188 548.42 625.077 551.763 619.282C557.224 609.921 562.462 604.237 570.931 598.33C578.175 593.092 580.627 591.866 580.627 593.315Z" fill="black"/>
<path d="M97.1805 628.643C87.7077 641.013 83.4728 655.724 85.8132 668.429C88.1535 681.356 94.8402 693.058 92.9456 680.688C90.7167 666.98 92.8342 652.046 98.5179 641.905C100.858 637.782 101.527 640.679 101.638 653.83C101.75 665.866 100.301 673.221 96.5119 680.576C94.3944 684.588 94.283 685.703 95.8432 684.7C97.4034 683.697 102.418 673.778 104.982 666.311C106.319 662.634 107.433 655.836 107.768 649.037C108.325 639.565 107.991 636.89 105.985 631.318C104.759 627.64 103.199 624.185 102.753 623.74C102.196 623.182 99.7437 625.411 97.1805 628.643Z" fill="black"/>
<path d="M491.025 626.08C489.911 628.086 488.351 633.212 487.459 637.447C485.007 649.261 488.016 664.083 495.929 679.573C499.384 686.483 499.941 684.366 496.709 676.119C495.149 672.218 493.588 666.98 493.143 664.306C492.14 658.288 493.588 639.565 495.037 639.565C496.709 639.565 501.278 650.932 502.615 658.399C503.73 664.751 502.727 679.685 500.721 684.811C500.387 685.703 500.721 686.372 501.39 686.372C503.173 686.372 507.965 675.673 509.525 668.095C512.088 655.836 506.739 637.782 497.378 627.306C492.92 622.402 492.92 622.402 491.025 626.08Z" fill="black"/>
<path d="M12.2588 632.99C12.2588 633.658 13.819 637.448 15.7136 641.46C22.5117 655.836 38.4483 667.649 55.0535 670.769C64.6378 672.553 65.8637 671.661 62.8547 664.974C56.7252 651.155 43.2404 638.896 30.2014 635.219C20.7286 632.433 12.2588 631.43 12.2588 632.99ZM33.4333 645.137C40.3428 647.812 52.156 656.282 57.3939 662.3C60.18 665.532 62.4089 668.652 62.4089 669.098C62.4089 670.212 57.5053 669.209 49.9271 666.312C42.5717 663.637 34.7706 657.062 29.5327 649.261C25.9665 644.023 25.2978 640.457 28.1954 642.685C28.9755 643.243 31.3158 644.357 33.4333 645.137Z" fill="black"/>
<path d="M571.153 632.99C560.677 634.55 549.756 640.456 541.62 649.261C534.934 656.393 529.361 665.754 529.361 669.989C529.361 671.772 530.03 671.995 534.153 671.327C554.213 668.206 570.819 657.062 579.289 641.125C584.638 630.872 584.749 631.095 571.153 632.99ZM568.367 642.462C568.367 643.8 561.68 652.715 557.111 657.285C551.873 662.522 541.62 667.872 534.376 669.209C530.03 669.989 530.03 669.989 533.485 665.643C540.84 656.393 546.635 651.935 559.451 645.471C566.695 641.794 568.367 641.237 568.367 642.462Z" fill="black"/>
<path d="M116.794 669.321C106.43 688.489 108.77 707.1 123.481 723.706C127.381 728.052 129.833 728.163 127.047 723.928C119.357 712.115 116.905 701.417 119.246 689.158C120.026 685.146 121.029 681.914 121.475 681.914C122.032 681.914 124.038 686.037 126.044 691.052C129.833 700.636 130.724 710.444 128.83 720.028C127.493 727.272 130.056 724.709 131.95 717.019C134.514 706.877 134.291 692.39 131.505 684.031C129.387 677.679 121.697 664.083 120.249 664.083C119.914 664.083 118.354 666.423 116.794 669.321ZM119.469 678.793C118.688 679.573 118.131 679.685 118.131 679.016C118.131 677.456 119.469 676.119 120.249 676.899C120.472 677.233 120.137 678.125 119.469 678.793Z" fill="black"/>
<path d="M470.519 670.101C463.832 681.022 462.049 686.929 462.049 698.631C461.938 708.772 464.055 722.034 465.615 722.034C466.061 722.034 466.173 717.576 466.061 712.004C465.727 703.646 466.061 700.748 468.513 693.281C470.185 688.378 472.191 683.586 472.971 682.36C474.308 680.577 474.642 681.134 475.311 687.82C476.648 699.968 475.534 708.326 471.633 717.242C467.398 726.715 467.176 729.389 470.965 724.82C481.552 712.115 486.233 692.947 482.109 679.574C480.326 673.444 475.868 664.083 474.865 664.083C474.42 664.083 472.525 666.757 470.519 670.101Z" fill="black"/>
<path d="M35.9968 680.688C33.3221 681.134 30.9818 681.802 30.536 682.248C29.533 683.14 34.2137 690.384 39.3401 696.067C48.8129 706.432 62.7435 712.227 77.7885 712.338C90.0474 712.338 90.7161 711.558 85.2553 703.534C78.0114 693.058 64.1923 684.254 50.2617 681.245C46.2497 680.465 42.4606 679.796 41.7919 679.796C41.2347 679.908 38.56 680.354 35.9968 680.688ZM59.0658 692.167C67.7585 694.841 77.2313 700.302 82.4692 705.986C86.3698 709.998 86.3698 709.998 79.3488 709.329C70.9904 708.438 65.4182 706.543 59.0658 702.531C53.7165 699.076 44.578 691.052 44.578 689.603C44.578 688.378 49.9274 689.269 59.0658 692.167Z" fill="black"/>
<path d="M546.079 680.354C536.048 682.248 525.796 687.04 517.326 693.95C511.865 698.296 504.287 708.995 505.401 710.778C505.736 711.447 509.97 712.004 515.32 712.004C529.696 712.004 541.844 707.546 551.985 698.631C558.003 693.281 565.47 683.028 564.133 681.802C563.13 680.799 549.645 679.796 546.079 680.354ZM546.636 693.17C541.398 698.519 531.925 704.314 524.235 706.766C518.44 708.661 507.073 710.444 507.073 709.441C507.073 708.215 521.338 697.628 526.91 694.841C533.485 691.498 542.735 688.823 547.75 688.712C550.982 688.601 550.982 688.601 546.636 693.17Z" fill="black"/>
<path d="M440.43 706.989C429.397 717.13 424.047 731.284 424.828 748.335C424.939 753.35 425.496 757.808 425.942 758.253C427.168 759.479 432.963 755.802 437.198 751.121C443.55 743.988 449.011 731.73 450.794 720.251C451.574 715.347 449.791 703.311 448.119 701.639C447.562 701.082 444.219 703.423 440.43 706.989ZM442.77 722.257C441.879 732.733 438.424 742.317 432.74 749.784C427.391 756.693 427.391 756.693 427.056 752.904C426.722 748.558 429.397 736.745 432.071 731.507C434.523 726.715 441.544 716.462 442.436 716.462C442.882 716.462 442.993 719.136 442.77 722.257Z" fill="black"/>
<path d="M150.896 704.426C150.451 705.874 150.116 710.778 150.116 715.347C150.228 725.6 153.348 735.519 159.589 745.103C166.164 755.356 177.754 765.274 180.206 762.823C180.652 762.377 180.986 757.696 180.986 752.347C181.098 733.847 174.3 719.248 160.703 708.215C156.469 704.76 152.679 701.974 152.345 701.974C152.011 701.974 151.342 703.088 150.896 704.426ZM158.029 716.907C156.469 718.468 156.246 718.356 155.688 716.462C155.354 715.236 155.688 714.233 156.246 714.233C156.914 714.233 156.803 713.453 155.911 712.227C155.131 711.224 155.688 711.447 157.137 712.784C159.478 714.901 159.478 715.347 158.029 716.907ZM164.604 725.154C170.065 732.398 175.303 744.211 177.643 754.241C179.092 760.594 179.092 760.928 177.309 759.925C174.634 758.588 168.282 751.344 165.273 746.44C161.595 740.645 156.691 718.691 159.032 718.691C159.478 718.691 162.041 721.588 164.604 725.154Z" fill="black"/>
<path d="M70.7673 730.504C67.0896 731.395 63.6348 732.621 63.0776 733.178C62.2975 733.959 64.192 736.633 68.5384 741.091C79.6828 752.235 95.508 758.699 109.216 757.362C117.685 756.582 128.161 753.461 128.161 751.567C128.161 749.226 116.125 740.199 107.321 735.853C99.2971 731.953 87.0382 728.721 80.7973 728.832C79.0142 728.832 74.445 729.612 70.7673 730.504ZM77.454 735.407C77.1196 735.965 76.1166 736.522 75.448 736.522C74.6678 736.522 74.7793 736.076 75.7823 735.407C77.8997 734.07 78.3455 734.07 77.454 735.407ZM76.8967 739.419C76.8967 739.642 75.8937 739.419 74.6678 738.751C73.4419 738.082 72.4389 737.302 72.4389 736.968C72.4389 736.745 73.4419 736.968 74.6678 737.636C75.8937 738.305 76.8967 739.085 76.8967 739.419ZM106.541 741.537C111.333 743.097 118.02 746.106 121.363 748.223C127.493 751.901 127.493 751.901 121.029 752.681C110.219 754.019 101.415 752.793 93.502 748.781C85.2551 744.657 79.1256 740.311 79.1256 738.528C79.1256 736.41 96.9568 738.305 106.541 741.537Z" fill="black"/>
<path d="M499.829 730.838C489.465 733.847 478.766 739.642 471.745 745.995C465.281 751.901 465.281 751.901 469.182 753.573C487.236 761.263 511.085 756.025 526.13 741.091C529.696 737.413 532.705 733.959 532.705 733.401C532.705 731.841 518.44 728.721 511.865 728.832C508.967 728.832 503.507 729.724 499.829 730.838ZM517.103 738.416C517.103 738.974 514.985 740.645 512.311 742.205C498.157 751.01 487.013 754.13 475.423 752.57C468.736 751.567 468.736 751.567 473.417 748.446C479.323 744.657 487.793 741.202 496.486 739.308C503.841 737.748 517.103 737.19 517.103 738.416Z" fill="black"/>
<path d="M130.836 768.841C128.385 769.398 124.484 770.512 122.255 771.404C117.352 773.521 106.987 780.208 106.987 781.323C106.987 782.883 117.909 787.786 125.041 789.458C137.969 792.467 149.113 790.907 162.487 784.22C171.179 779.762 171.402 777.756 163.601 774.079C151.788 768.506 141.201 766.835 130.836 768.841ZM162.487 776.642C165.05 777.422 167.167 778.425 167.167 778.871C167.167 779.205 162.933 780.988 157.695 782.771C149.893 785.335 146.996 785.78 140.755 785.335C133.4 784.777 123.704 781.768 123.704 779.985C123.704 779.539 124.818 778.871 126.267 778.536C127.605 778.202 131.282 777.199 134.291 776.196C140.755 774.19 155.02 774.413 162.487 776.642Z" fill="black"/>
<path d="M442.77 769.398C436.306 771.181 428.505 774.859 427.39 776.642C426.499 778.091 427.056 777.979 435.191 776.085C446.67 773.298 458.038 774.19 469.739 778.871C473.863 780.431 472.748 781.211 461.604 783.886C452.354 786.115 448.342 785.78 436.529 781.657C427.947 778.648 426.833 778.425 426.833 779.762C426.833 781.88 444.33 788.901 452.688 790.238C463.387 791.798 471.745 790.572 482.332 785.557C489.019 782.437 489.465 782.103 487.793 780.208C484.561 776.642 474.308 771.181 467.51 769.398C459.486 767.392 450.459 767.392 442.77 769.398Z" fill="black"/>
<path d="M290.648 787.341C281.844 792.021 281.732 806.955 290.313 812.304C298.337 817.319 308.925 813.642 312.045 804.726C313.494 800.603 313.494 799.488 312.045 795.365C309.036 786.895 298.672 782.883 290.648 787.341ZM305.024 794.027C307.253 796.256 307.699 797.482 307.142 800.38C306.696 802.386 306.361 804.503 306.25 805.283C306.139 806.063 305.693 806.398 305.247 806.063C304.801 805.84 304.244 806.175 304.021 806.732C303.798 807.401 301.904 808.181 299.675 808.515C293.991 809.407 289.31 805.395 289.31 799.488C289.31 791.687 299.118 788.121 305.024 794.027Z" fill="black"/>
<path d="M179.426 791.798C169.842 794.361 162.709 798.151 156.357 803.834C153.125 806.732 150.45 809.518 150.45 809.964C150.45 811.301 162.598 814.756 169.284 815.313C181.766 816.427 198.706 810.187 209.293 800.491C214.308 796.033 214.419 795.922 212.079 794.584C208.736 792.913 194.582 790.015 189.679 790.127C187.45 790.127 182.769 790.907 179.426 791.798ZM204.501 799.711C195.028 804.503 186.447 807.623 181.432 807.846C173.631 808.292 167.167 807.846 167.167 806.732C167.167 804.837 177.531 799.599 184.998 797.593C189.233 796.479 196.477 795.699 202.272 795.699C212.302 795.699 212.302 795.699 204.501 799.711Z" fill="black"/>
<path d="M391.283 792.355C386.714 793.47 382.813 794.584 382.59 794.807C381.699 795.81 394.738 806.843 399.864 809.406C408.334 813.641 418.476 815.982 425.719 815.313C432.406 814.756 444.665 811.301 444.665 809.964C444.665 808.069 434.635 799.488 428.84 796.59C415.467 789.792 405.214 788.678 391.283 792.355ZM406.885 796.702C413.683 798.039 429.063 804.949 429.063 806.732C429.063 807.4 425.385 807.846 419.256 807.846C409.894 807.846 409.114 807.623 398.081 802.385C391.729 799.376 386.268 796.59 385.822 796.256C384.819 795.142 400.533 795.476 406.885 796.702Z" fill="black"/>
<path d="M348.265 800.937C345.256 801.159 342.247 801.717 341.689 802.274C338.903 805.06 353.614 820.105 364.09 825.231C369.439 827.906 372.225 828.463 381.141 828.798C394.18 829.244 395.74 828.463 392.508 823.114C383.927 809.406 365.093 799.934 348.265 800.937ZM362.752 808.292C367.099 810.298 373.117 814.31 376.126 817.096C381.698 822.334 381.698 822.334 376.683 821.554C369.439 820.551 360.858 816.539 352.054 809.964C347.819 806.843 344.364 804.057 344.364 803.723C344.364 802.274 355.954 805.171 362.752 808.292Z" fill="black"/>
<path d="M230.579 802.831C218.654 807.178 209.961 813.53 204.389 821.777C199.597 828.798 200.488 829.467 214.419 828.798C222.889 828.464 225.786 827.795 232.027 824.897C242.949 819.771 256.879 805.84 254.651 802.274C253.648 800.714 235.371 801.048 230.579 802.831ZM251.53 804.837C250.304 805.617 246.849 808.069 243.729 810.521C236.485 815.87 226.009 820.885 219.88 821.888C213.75 822.78 213.75 821.331 219.88 816.316C228.461 809.295 241.723 803.723 250.193 803.611C253.202 803.5 253.313 803.611 251.53 804.837Z" fill="black"/>
</svg>
